<svg id="visual" viewBox="0 0 1920 1080" width="1920" height="1080" xmlns="http://www.w3.org/2000/svg" xmlns:xlink="http://www.w3.org/1999/xlink" version="1.1"><path d="M0 741L32 760.5C64 780 128 819 192 839.7C256 860.3 320 862.7 384 854.3C448 846 512 827 576 819.2C640 811.3 704 814.7 768 827.8C832 841 896 864 960 849.8C1024 835.7 1088 784.3 1152 763.5C1216 742.7 1280 752.3 1344 767.5C1408 782.7 1472 803.3 1536 798C1600 792.7 1664 761.3 1728 768.7C1792 776 1856 822 1888 845L1920 868L1920 1081L1888 1081C1856 1081 1792 1081 1728 1081C1664 1081 1600 1081 1536 1081C1472 1081 1408 1081 1344 1081C1280 1081 1216 1081 1152 1081C1088 1081 1024 1081 960 1081C896 1081 832 1081 768 1081C704 1081 640 1081 576 1081C512 1081 448 1081 384 1081C320 1081 256 1081 192 1081C128 1081 64 1081 32 1081L0 1081Z" fill="#a9b8f8"></path><path d="M0 879L32 881.2C64 883.3 128 887.7 192 875.3C256 863 320 834 384 833.7C448 833.3 512 861.7 576 862.3C640 863 704 836 768 843.2C832 850.3 896 891.7 960 893C1024 894.3 1088 855.7 1152 855.3C1216 855 1280 893 1344 904.8C1408 916.7 1472 902.3 1536 887.3C1600 872.3 1664 856.7 1728 845.8C1792 835 1856 829 1888 826L1920 823L1920 1081L1888 1081C1856 1081 1792 1081 1728 1081C1664 1081 1600 1081 1536 1081C1472 1081 1408 1081 1344 1081C1280 1081 1216 1081 1152 1081C1088 1081 1024 1081 960 1081C896 1081 832 1081 768 1081C704 1081 640 1081 576 1081C512 1081 448 1081 384 1081C320 1081 256 1081 192 1081C128 1081 64 1081 32 1081L0 1081Z" fill="#8690ff"></path><path d="M0 961L32 958.2C64 955.3 128 949.7 192 949C256 948.3 320 952.7 384 951.2C448 949.7 512 942.3 576 932.2C640 922 704 909 768 899.7C832 890.3 896 884.7 960 894.3C1024 904 1088 929 1152 940.7C1216 952.3 1280 950.7 1344 953.5C1408 956.3 1472 963.7 1536 968.2C1600 972.7 1664 974.3 1728 971.5C1792 968.7 1856 961.3 1888 957.7L1920 954L1920 1081L1888 1081C1856 1081 1792 1081 1728 1081C1664 1081 1600 1081 1536 1081C1472 1081 1408 1081 1344 1081C1280 1081 1216 1081 1152 1081C1088 1081 1024 1081 960 1081C896 1081 832 1081 768 1081C704 1081 640 1081 576 1081C512 1081 448 1081 384 1081C320 1081 256 1081 192 1081C128 1081 64 1081 32 1081L0 1081Z" fill="#7363ff"></path><path d="M0 979L32 985.8C64 992.7 128 1006.3 192 1004.3C256 1002.3 320 984.7 384 984.8C448 985 512 1003 576 1014.3C640 1025.7 704 1030.3 768 1025.3C832 1020.3 896 1005.7 960 1001.8C1024 998 1088 1005 1152 1003.2C1216 1001.3 1280 990.7 1344 982C1408 973.3 1472 966.7 1536 963.7C1600 960.7 1664 961.3 1728 969.5C1792 977.7 1856 993.3 1888 1001.2L1920 1009L1920 1081L1888 1081C1856 1081 1792 1081 1728 1081C1664 1081 1600 1081 1536 1081C1472 1081 1408 1081 1344 1081C1280 1081 1216 1081 1152 1081C1088 1081 1024 1081 960 1081C896 1081 832 1081 768 1081C704 1081 640 1081 576 1081C512 1081 448 1081 384 1081C320 1081 256 1081 192 1081C128 1081 64 1081 32 1081L0 1081Z" fill="#7714ff"></path></svg>