<svg id="visual" viewBox="0 0 960 540" width="960" height="540" xmlns="http://www.w3.org/2000/svg" xmlns:xlink="http://www.w3.org/1999/xlink" version="1.1"><path d="M0 213L11.5 205.3C23 197.7 46 182.3 68.8 180.5C91.7 178.7 114.3 190.3 137.2 212.7C160 235 183 268 205.8 250.8C228.7 233.7 251.3 166.3 274.2 142.8C297 119.3 320 139.7 342.8 167.2C365.7 194.7 388.3 229.3 411.2 255.3C434 281.3 457 298.7 480 303.3C503 308 526 300 548.8 275.5C571.7 251 594.3 210 617.2 174C640 138 663 107 685.8 129.5C708.7 152 731.3 228 754.2 256.7C777 285.3 800 266.7 822.8 241C845.7 215.3 868.3 182.7 891.2 178.3C914 174 937 198 948.5 210L960 222" fill="none" stroke-linecap="round" stroke-linejoin="miter" stroke="#bda6ff" stroke-width="40"></path></svg>